<?xml version="1.0" encoding="UTF-8" standalone="no"?>
<svg xmlns="http://www.w3.org/2000/svg" viewBox="0 0 640 512" fill="#FF4800">
  <path d="
M208 352c-35.3 0-64 28.7-64 64s28.7 64 64 64 64-28.7 64-64-28.7-64-64-64zm288 0c-35.3 0-64 28.7-64 64s28.7 64 64 64 64-28.7 64-64-28.7-64-64-64zM0 96c0-35.3 28.7-64 64-64H115.6c27.8 0 52.7 18.6 60.7 45.3L179.8 96H592c26.5 0 48 21.5 48 48 0 7.6-1.8 14.8-5.1 21.2l-96 192c-10.8 21.6-32.7 34.8-56.5 34.8H238.4c-24.1 0-46.1-14.1-56.8-36.1L0 131.2V96zm170.2 125.7L218.3 288H458.3l72-144H180.4l-10.2 20.4z
"/>
</svg>
